<mxfile host="app.diagrams.net" modified="2024-05-16T12:05:10.135Z" agent="Mozilla/5.0 (Windows NT 10.0; Win64; x64) AppleWebKit/537.36 (KHTML, like Gecko) Chrome/123.0.0.0 Safari/537.36 OPR/109.0.0.0" version="24.4.2" etag="6w7Ao9rXPWnvvsGRe4rh" type="github">
  <diagram name="PÃ¡gina-1" id="_bZe-J39JQSCGFwYU95-">
    <mxGraphModel>
      <root>
        <mxCell id="0" />
        <mxCell id="1" parent="0" />
      </root>
    </mxGraphModel>
  </diagram>
</mxfile>
